<?xml version="1.0" standalone="no"?>
<!DOCTYPE svg PUBLIC "-//W3C//DTD SVG 20010904//EN"
 "http://www.w3.org/TR/2001/REC-SVG-20010904/DTD/svg10.dtd">
<svg version="1.0" xmlns="http://www.w3.org/2000/svg"
 width="605.000000pt" height="845.000000pt" viewBox="0 0 605.000000 845.000000"
 preserveAspectRatio="xMidYMid meet">
<metadata>
Created by potrace 1.16, written by Peter Selinger 2001-2019
</metadata>
<g transform="translate(0.000000,845.000000) scale(0.100000,-0.100000)"
fill="#000000" stroke="none">
<path d="M2755 8050 c-255 -39 -347 -56 -380 -70 -11 -5 -45 -14 -75 -21 -70
-15 -251 -79 -360 -127 -97 -42 -297 -147 -321 -168 -8 -8 -19 -14 -23 -14 -4
0 -53 -31 -109 -69 -325 -221 -625 -544 -829 -891 -60 -104 -162 -314 -183
-380 -10 -30 -21 -59 -25 -65 -8 -9 -43 -122 -76 -240 -8 -27 -21 -84 -28
-125 -8 -41 -19 -93 -25 -115 -41 -168 -41 -772 0 -940 6 -22 16 -72 24 -111
16 -85 33 -152 44 -179 5 -11 17 -49 26 -85 9 -36 25 -83 35 -105 10 -22 21
-51 25 -65 4 -14 23 -58 41 -98 19 -40 34 -75 34 -78 0 -26 233 -411 288 -474
7 -8 46 -55 86 -105 40 -49 133 -149 207 -220 166 -162 265 -239 489 -380 118
-74 391 -203 510 -239 30 -10 64 -22 75 -27 29 -14 206 -58 315 -79 154 -30
457 -53 605 -46 151 6 364 30 450 50 104 24 260 67 270 75 5 4 30 13 55 20 48
14 252 100 260 110 3 3 41 24 84 46 74 37 185 104 231 139 11 8 56 42 100 75
75 56 99 76 208 177 95 89 267 293 345 410 7 10 29 44 49 74 49 76 178 329
194 384 7 26 16 46 20 46 3 0 17 37 29 83 13 45 26 87 30 92 4 6 17 55 29 110
12 55 26 115 32 133 22 69 38 275 39 486 l0 219 -302 -6 c-167 -4 -724 -10
-1238 -13 -514 -3 -945 -7 -957 -10 l-23 -4 0 -886 0 -885 -87 6 c-102 7 -291
33 -305 41 -5 3 -50 17 -101 30 -51 14 -111 33 -134 44 -24 11 -46 20 -50 20
-12 0 -175 80 -228 113 -236 143 -453 345 -583 542 -25 39 -48 72 -52 75 -22
21 -154 295 -166 347 -4 15 -15 46 -24 68 -10 22 -28 94 -40 160 -12 66 -27
138 -33 160 -16 55 -16 394 1 465 6 30 23 111 37 179 13 68 28 128 33 135 5 6
19 43 30 81 19 62 136 306 162 338 6 7 35 48 66 92 93 132 190 239 299 330 27
22 56 47 65 55 16 15 131 92 200 135 66 41 145 82 195 100 28 11 59 24 70 31
11 7 56 22 100 34 44 12 85 26 90 30 19 14 203 43 433 66 l52 6 0 96 c0 54 4
92 8 86 4 -5 23 -16 42 -24 19 -7 73 -31 120 -53 47 -21 108 -49 135 -62 145
-67 195 -90 250 -115 97 -46 238 -107 265 -115 14 -4 27 -11 30 -14 3 -4 32
-18 65 -31 33 -13 65 -27 71 -31 6 -5 42 -20 80 -35 38 -14 74 -29 79 -33 6
-4 37 -18 70 -31 33 -13 70 -30 83 -38 17 -11 40 -13 89 -9 36 4 70 11 77 15
6 5 70 20 141 32 72 12 135 26 140 30 6 4 55 15 109 24 55 9 127 23 160 31 34
8 122 28 196 45 166 38 427 97 498 112 38 8 52 16 52 28 0 17 -32 33 -475 235
-27 13 -79 36 -115 53 -90 42 -177 81 -300 137 -58 26 -132 60 -165 75 -33 16
-85 39 -115 53 -30 14 -77 35 -103 47 -30 14 -58 20 -75 17 -31 -6 -286 -63
-482 -107 -74 -16 -193 -43 -265 -59 -71 -16 -202 -45 -290 -65 -88 -20 -208
-46 -267 -59 l-108 -23 0 353 0 353 -127 -1 c-71 -1 -150 -5 -178 -9z"/>
<path d="M3506 7032 c-2 -4 -12 -48 -21 -97 -8 -50 -22 -112 -30 -140 -7 -27
-13 -63 -13 -80 0 -16 -2 -39 -6 -50 -10 -30 27 -79 114 -152 139 -117 358
-256 568 -361 169 -84 215 -89 392 -44 284 73 664 234 742 315 l41 42 -2 190
c-1 104 -6 194 -11 199 -5 5 -37 1 -77 -8 -95 -23 -354 -81 -503 -111 -69 -14
-132 -30 -141 -34 -8 -5 -49 -14 -90 -21 l-75 -12 -180 76 c-98 42 -186 80
-194 85 -8 4 -71 32 -140 61 -69 29 -149 63 -178 76 -29 13 -55 24 -57 24 -2
0 -29 11 -59 25 -58 27 -72 30 -80 17z"/>
<path d="M584 2266 c-100 -32 -198 -130 -241 -241 -24 -61 -28 -84 -28 -176 0
-64 4 -111 11 -120 7 -8 15 -29 19 -46 7 -33 74 -131 117 -169 12 -12 51 -36
85 -53 107 -56 251 -54 344 4 l39 25 0 -30 0 -30 80 0 80 0 0 225 0 225 -162
-2 -163 -3 -3 -49 c-6 -93 -3 -96 88 -96 96 0 101 -10 35 -68 -53 -47 -117
-67 -181 -58 -65 8 -106 37 -151 104 -38 56 -38 58 -38 155 0 61 4 100 11 105
6 4 18 21 27 38 27 52 91 96 147 102 83 8 115 -4 176 -63 31 -30 60 -55 65
-55 5 0 36 19 68 43 79 56 79 72 0 149 -33 32 -77 66 -97 75 -50 22 -270 28
-328 9z"/>
<path d="M3030 2160 l0 -100 -39 0 c-44 0 -51 -10 -51 -75 0 -65 7 -75 51 -75
l39 0 0 -196 c0 -125 4 -203 11 -217 16 -30 58 -66 86 -74 45 -11 187 3 226
22 37 17 38 19 31 59 -3 23 -12 57 -18 76 -10 29 -16 34 -36 31 -14 -2 -43 -5
-65 -5 l-40 -1 -3 152 -3 152 63 3 63 3 0 70 0 70 -62 3 -62 3 -3 97 -3 97
-92 3 -93 3 0 -101z"/>
<path d="M1460 2063 c-8 -3 -32 -19 -52 -35 l-37 -29 -3 28 c-3 28 -3 28 -90
31 l-88 3 0 -316 0 -316 93 3 92 3 3 189 c2 163 5 193 20 209 22 25 85 53 140
62 l42 7 0 84 0 84 -52 -1 c-29 0 -60 -3 -68 -6z"/>
<path d="M1822 2059 c-108 -31 -212 -149 -212 -241 0 -9 -4 -20 -10 -23 -13
-8 -13 -70 1 -114 33 -103 45 -127 88 -170 70 -71 107 -85 236 -89 108 -4 111
-3 170 28 81 44 135 100 135 143 0 14 -42 30 -113 42 -33 7 -41 3 -76 -28 -71
-64 -154 -58 -211 13 -16 21 -30 43 -30 49 0 7 73 11 233 13 l232 3 3 53 c4
66 -36 183 -76 225 -39 41 -106 84 -149 96 -46 13 -176 13 -221 0z m185 -157
c21 -13 63 -71 63 -86 0 -3 -63 -6 -140 -6 -157 0 -158 1 -95 68 46 49 118 60
172 24z"/>
<path d="M2480 2063 c-43 -8 -150 -62 -156 -77 -8 -22 42 -126 61 -126 8 0 40
14 70 31 45 25 66 31 116 31 66 0 88 -12 114 -65 8 -17 15 -31 15 -33 0 -1
-44 0 -98 3 -107 6 -194 -11 -241 -48 -80 -63 -100 -173 -48 -261 16 -26 37
-50 48 -53 10 -4 19 -10 19 -15 0 -18 79 -32 157 -29 68 3 87 9 129 35 l49 30
32 -33 c30 -33 33 -34 100 -31 l68 3 3 74 c3 65 0 75 -18 88 -18 13 -20 24
-20 144 0 150 -11 203 -50 250 -49 60 -110 83 -225 85 -55 1 -111 0 -125 -3z
m175 -363 c3 -5 15 -10 26 -10 31 0 23 -35 -18 -78 -61 -63 -151 -67 -182 -8
-18 33 -4 68 36 89 32 17 129 22 138 7z"/>
<path d="M3007 1283 c-4 -3 -7 -73 -7 -155 l0 -148 -27 17 c-16 10 -34 23 -41
30 -18 17 -94 26 -164 20 -81 -7 -146 -51 -196 -132 -35 -57 -37 -65 -40 -163
-4 -100 10 -192 29 -192 5 0 9 -6 9 -14 0 -23 73 -94 124 -121 40 -21 63 -25
129 -25 84 0 139 18 184 59 21 20 21 20 27 -2 8 -34 56 -57 118 -57 30 0 59 5
66 12 7 7 12 40 12 78 0 54 -3 67 -20 78 -19 12 -20 23 -20 367 l0 355 -88 0
c-49 0 -92 -3 -95 -7z m-101 -409 c19 -9 47 -32 64 -50 27 -31 30 -41 30 -104
0 -59 -4 -73 -25 -99 -31 -36 -78 -61 -117 -61 -30 0 -32 1 -85 47 -74 64 -66
188 16 250 48 37 68 40 117 17z"/>
<path d="M676 1188 c-49 -141 -86 -243 -96 -263 -6 -11 -21 -51 -34 -90 -14
-38 -41 -115 -61 -170 -68 -185 -85 -237 -79 -246 8 -14 180 -11 192 4 5 6 22
51 36 100 l27 87 139 0 139 0 10 -32 c5 -18 20 -62 33 -98 l23 -65 98 -3 c95
-3 97 -2 97 20 0 13 -10 43 -21 68 -11 25 -30 74 -41 110 -11 36 -23 67 -27
70 -3 3 -19 46 -35 95 -16 50 -32 95 -36 100 -4 6 -18 42 -30 80 -12 39 -26
75 -30 80 -4 6 -15 37 -25 70 -10 33 -27 81 -38 108 l-19 47 -98 0 -98 0 -26
-72z m188 -358 l23 -75 -85 -3 c-46 -2 -86 -2 -87 0 -3 3 65 208 80 242 9 21
22 -9 69 -164z"/>
<path d="M1429 1040 c-41 -12 -111 -56 -142 -89 -50 -54 -80 -137 -81 -222 -1
-42 4 -87 10 -100 7 -13 17 -38 24 -56 19 -50 92 -121 155 -149 52 -24 65 -26
163 -22 90 4 114 8 147 28 53 31 103 78 122 114 14 27 14 31 -3 43 -10 7 -25
13 -33 13 -9 1 -41 9 -70 19 l-55 19 -44 -39 c-53 -46 -92 -51 -143 -16 -73
49 -98 132 -65 210 17 41 65 83 104 92 36 7 97 -17 115 -47 15 -23 46 -22 127
5 42 14 66 28 68 39 8 43 -104 140 -181 158 -50 11 -181 12 -218 0z"/>
<path d="M2050 1043 c-53 -10 -160 -66 -160 -83 0 -25 21 -80 30 -80 4 0 10
-9 13 -20 7 -27 30 -25 75 5 46 30 121 45 170 34 39 -8 82 -49 82 -77 0 -15
-14 -17 -117 -17 -163 0 -225 -27 -269 -119 -29 -60 -30 -109 -5 -162 46 -94
108 -127 230 -122 75 3 92 7 135 33 l49 30 32 -32 c29 -29 39 -33 88 -33 85 0
87 2 87 81 0 59 -3 72 -25 95 -24 26 -25 32 -25 158 0 154 -9 195 -54 239 -56
56 -99 71 -211 73 -55 1 -111 0 -125 -3z m183 -365 c60 -29 5 -118 -81 -133
-95 -16 -149 65 -79 119 36 29 112 36 160 14z"/>
<path d="M3491 1039 c-78 -24 -170 -111 -197 -187 -18 -52 -18 -208 1 -263 18
-52 79 -119 143 -156 42 -25 59 -28 153 -31 99 -4 111 -2 168 23 71 32 141
101 141 139 0 21 -7 27 -37 35 -102 26 -110 26 -152 -12 -47 -42 -98 -55 -144
-36 -47 19 -87 64 -87 98 0 7 77 12 228 13 l227 3 3 67 c5 117 -61 230 -164
283 -51 25 -71 30 -154 32 -52 1 -110 -2 -129 -8z m217 -183 c56 -62 50 -66
-103 -66 -124 0 -134 1 -128 18 36 101 158 127 231 48z"/>
<path d="M4290 1041 c-14 -4 -45 -20 -67 -34 l-42 -26 -3 27 c-3 27 -4 27 -90
30 l-88 3 0 -316 0 -316 93 3 92 3 5 185 c5 200 8 213 64 255 40 31 86 33 112
4 17 -19 20 -43 24 -233 l5 -211 93 -3 92 -3 0 170 c0 191 9 232 60 266 16 11
30 23 30 28 0 4 17 7 38 7 32 0 41 -5 57 -32 18 -29 21 -57 25 -233 l5 -200
90 0 90 0 0 250 c0 245 0 251 -24 292 -42 73 -72 88 -178 88 -91 0 -91 0 -152
-42 l-61 -42 -39 41 -38 41 -84 3 c-46 2 -95 0 -109 -5z"/>
<path d="M5020 1017 c0 -12 9 -40 20 -61 11 -22 27 -62 36 -90 9 -28 27 -73
39 -101 13 -27 30 -72 40 -100 9 -27 20 -54 24 -60 4 -5 18 -39 31 -75 12 -36
28 -73 36 -84 14 -21 11 -35 -23 -89 -24 -38 -26 -39 -76 -35 l-52 3 -3 -83
c-3 -97 -3 -97 103 -97 59 0 78 5 118 29 27 16 54 40 59 52 6 13 14 24 18 24
4 0 18 33 30 73 13 39 26 77 30 82 4 6 17 42 30 80 12 39 28 84 35 100 7 17
23 62 35 100 12 39 28 84 35 100 7 17 20 55 30 85 9 30 23 69 31 86 8 18 15
42 16 55 3 23 1 24 -87 27 l-90 3 -42 -133 c-24 -73 -48 -154 -55 -180 -7 -27
-16 -48 -20 -48 -4 0 -8 -8 -9 -17 0 -14 -2 -15 -6 -3 -3 8 -13 33 -23 55 -10
22 -28 69 -39 105 -12 36 -26 74 -31 85 -6 11 -18 45 -28 75 l-19 55 -96 3
c-96 3 -97 2 -97 -21z"/>
</g>
</svg>
